<svg width="48" height="48" viewBox="0 0 64 64" fill="none" xmlns="http://www.w3.org/2000/svg">
  <defs>
    <linearGradient id="bridgeGradient" x1="0%" y1="0%" x2="100%" y2="100%">
      <stop offset="0%" style="stop-color:#06b6d4;stop-opacity:1" />
      <stop offset="100%" style="stop-color:#0ea5e9;stop-opacity:1" />
    </linearGradient>
    <linearGradient id="accentGradient" x1="0%" y1="0%" x2="100%" y2="100%">
      <stop offset="0%" style="stop-color:#00ff88;stop-opacity:1" />
      <stop offset="100%" style="stop-color:#06b6d4;stop-opacity:1" />
    </linearGradient>
  </defs>
  <g>
    <rect x="8" y="16" width="6" height="32" fill="url(#bridgeGradient)" rx="2" />
    <rect x="50" y="16" width="6" height="32" fill="url(#bridgeGradient)" rx="2" />
    <rect x="8" y="30" width="48" height="6" fill="url(#bridgeGradient)" rx="3" />
    <line x1="14" y1="16" x2="16" y2="30" stroke="url(#accentGradient)" stroke-width="2" stroke-linecap="round" />
    <line x1="14" y1="16" x2="20" y2="30" stroke="url(#accentGradient)" stroke-width="2" stroke-linecap="round" opacity="0.7" />
    <line x1="50" y1="16" x2="48" y2="30" stroke="url(#accentGradient)" stroke-width="2" stroke-linecap="round" />
    <circle cx="14" cy="24" r="2" fill="url(#accentGradient)" />
    <circle cx="32" cy="33" r="3" fill="url(#accentGradient)" />
    <circle cx="50" cy="24" r="2" fill="url(#accentGradient)" />
  </g>
  <g opacity="0.8">
    <rect x="12" y="44" width="8" height="3" fill="url(#accentGradient)" rx="1.5" />
    <rect x="28" y="44" width="8" height="3" fill="url(#accentGradient)" rx="1.5" />
    <rect x="44" y="44" width="8" height="3" fill="url(#accentGradient)" rx="1.5" />
  </g>
</svg>